<?xml version="1.0" encoding="utf-8"?>
<!-- Generator: Adobe Illustrator 15.0.2, SVG Export Plug-In . SVG Version: 6.00 Build 0)  -->
<!DOCTYPE svg PUBLIC "-//W3C//DTD SVG 1.1//EN" "http://www.w3.org/Graphics/SVG/1.1/DTD/svg11.dtd" [
	<!ENTITY st0 "fill:url(#SVGID_1_);">
	<!ENTITY st1 "fill:url(#SVGID_2_);">
	<!ENTITY st2 "fill:url(#SVGID_3_);">
	<!ENTITY st3 "fill:url(#SVGID_4_);">
	<!ENTITY st4 "fill:url(#SVGID_5_);">
	<!ENTITY st5 "fill:url(#SVGID_6_);">
	<!ENTITY st6 "fill:url(#SVGID_7_);">
	<!ENTITY st7 "fill:url(#SVGID_8_);">
	<!ENTITY st8 "fill:url(#SVGID_9_);">
]>
<svg version="1.1" id="Layer_1" xmlns="http://www.w3.org/2000/svg" xmlns:xlink="http://www.w3.org/1999/xlink" x="0px" y="0px"
	 width="367.989px" height="367.99px" viewBox="0 0 367.989 367.99" style="enable-background:new 0 0 367.989 367.99;"
	 xml:space="preserve">
<g>
	<g>
		<linearGradient id="SVGID_1_" gradientUnits="userSpaceOnUse" x1="288.9424" y1="84.6011" x2="4.2022" y2="358.3898">
			<stop  offset="0" style="stop-color:#8585bc"/>
			<stop  offset="1" style="stop-color:#343490"/>
		</linearGradient>
		<path style="&st0;" d="M336.352,191.783c-9.074,0-27.158,7.932-27.158,7.932c-11.032,4.839-20.059-1.059-20.059-13.105V100.76
			v-0.001V78.856h-21.876c-0.011,0-0.019-0.001-0.028-0.001h-85.866c-12.006-0.008-17.894-8.987-13.121-19.978
			c0.026-0.061,0.051-0.123,0.076-0.185c0.607-1.399,7.886-18.357,7.887-27.052V31.64c0,0,0,0,0-0.001l0,0
			c0-6.006-1.674-11.622-4.58-16.405c-0.264-0.435-0.539-0.863-0.823-1.284C165.118,5.534,155.49,0,144.567,0
			c-10.922,0-20.551,5.534-26.236,13.95c-0.284,0.42-0.559,0.849-0.823,1.284c-2.906,4.783-4.581,10.399-4.581,16.405l0,0
			c0,0.001,0,0.001,0,0.001v0.001c0.001,8.694,7.28,25.652,7.887,27.052c0.024,0.062,0.05,0.124,0.076,0.185
			c4.773,10.991-1.115,19.97-13.121,19.978H21.904c-0.01,0-0.019,0.001-0.028,0.001H0v17.346c0.315,1.472,0.488,2.995,0.488,4.557
			v85.85c0,12.047,9.027,17.945,20.059,13.105c0,0,18.085-7.932,27.158-7.932c17.475,0,31.638,14.164,31.638,31.639
			c0,17.477-14.164,31.64-31.638,31.64c-9.073,0-27.158-7.932-27.158-7.932c-11.032-4.84-20.059,1.058-20.059,13.105v85.851
			c0,1.563-0.172,3.086-0.488,4.559v17.346h21.904h85.879c12.026-0.016,17.912-9.035,13.076-20.057c0,0-7.932-18.086-7.932-27.158
			c0-17.475,14.165-31.639,31.64-31.639c17.475,0,31.64,14.165,31.64,31.639c0,9.072-7.932,27.158-7.932,27.158
			c-4.835,11.021,1.05,20.041,13.076,20.057h85.88h21.904v-21.904v-85.851c0-12.048,9.026-17.945,20.059-13.105
			c0,0,18.084,7.932,27.158,7.932c17.475,0,31.637-14.163,31.637-31.64C367.989,205.947,353.827,191.783,336.352,191.783z"/>
	</g>
	<g>
		<linearGradient id="SVGID_2_" gradientUnits="userSpaceOnUse" x1="332.7778" y1="50.4873" x2="-35.9412" y2="176.8007">
			<stop  offset="0" style="stop-color:#8585bc"/>
			<stop  offset="1" style="stop-color:#343490"/>
		</linearGradient>
		<path style="&st1;" d="M0.488,186.609c0,12.047,9.027,17.945,20.059,13.105c0,0,18.085-7.932,27.158-7.932
			c9.342,0,17.736,4.051,23.527,10.49c6.011,4.737,10.165,11.766,10.995,19.679c-0.774-18.376-15.959-33.09-34.521-33.09
			c-9.575,0-27.57,7.844-28.332,8.177c-2.188,0.961-4.291,1.447-6.25,1.447c-5.992,0-9.714-4.551-9.714-11.877v-85.85
			c0-1.613-0.164-3.246-0.487-4.856V81.777l104.849-0.001c6.828-0.004,12.261-2.561,15.3-7.197c1.241-1.892,5.65-8.213-6.057-25.622
			c2.28,6.056,5.429,9.579,5.523,17.749c-0.242,7.123-5.794,12.143-14.767,12.148H21.904c-0.01,0-0.019,0.001-0.028,0.001H0v17.346
			c0.315,1.472,0.488,2.995,0.488,4.557V186.609z"/>
		<linearGradient id="SVGID_3_" gradientUnits="userSpaceOnUse" x1="110.0073" y1="326.4971" x2="129.6553" y2="326.4971">
			<stop  offset="0" style="stop-color:#8585bc"/>
			<stop  offset="1" style="stop-color:#343490"/>
		</linearGradient>
		<path style="&st2;" d="M129.655,289.603c-11.611,5.576-19.648,17.452-19.648,31.172c0,9.574,7.843,27.57,8.177,28.332
			c1.001,2.279,1.473,4.459,1.439,6.447c0.419,2.541,0.406,5.197,0.03,7.836c3.253-3.686,3.927-9.254,1.207-15.457
			c0,0-7.932-18.086-7.932-27.158c0-5.26,1.291-10.215,3.561-14.58C118.638,299.193,123.431,293.275,129.655,289.603z"/>
		<linearGradient id="SVGID_4_" gradientUnits="userSpaceOnUse" x1="0.4878" y1="251.2378" x2="78.3418" y2="251.2378">
			<stop  offset="0" style="stop-color:#8585bc"/>
			<stop  offset="1" style="stop-color:#343490"/>
		</linearGradient>
		<path style="&st3;" d="M3.925,255.901c1.208-4.739,4.5-7.544,9.198-7.544c1.959,0,4.063,0.486,6.25,1.446
			c0.762,0.335,18.757,8.179,28.332,8.179c13.301,0,24.862-7.557,30.637-18.6c-4.32,7.273-11.721,12.551-20.307,13.945
			c-3.238,1.117-6.711,1.733-10.33,1.733c-9.073,0-27.158-7.932-27.158-7.932c-11.032-4.84-20.059,1.058-20.059,13.105v2.858
			C1.527,260.658,2.684,258.268,3.925,255.901z"/>
		<linearGradient id="SVGID_5_" gradientUnits="userSpaceOnUse" x1="64.3013" y1="303.7617" x2="17.9374" y2="415.1081">
			<stop  offset="0" style="stop-color:#8585bc"/>
			<stop  offset="1" style="stop-color:#343490"/>
		</linearGradient>
		<path style="&st4;" d="M118.197,360.494c-1.919,2.943-5.62,4.57-10.417,4.576H2.921v-14.127c0.324-1.611,0.487-3.242,0.487-4.857
			v-85.281c-1.078,2.294-2.05,4.629-2.92,7.013v78.268c0,1.563-0.172,3.086-0.488,4.559v17.346h107.784
			c4.016-0.006,7.327-1.033,9.803-2.785c0.35-1.568,0.565-3.158,0.626-4.738C118.207,360.477,118.203,360.486,118.197,360.494z"/>
		<linearGradient id="SVGID_6_" gradientUnits="userSpaceOnUse" x1="317.6729" y1="112.4209" x2="300.8803" y2="341.6775">
			<stop  offset="0" style="stop-color:#8585bc"/>
			<stop  offset="1" style="stop-color:#343490"/>
		</linearGradient>
		<path style="&st5;" d="M289.182,259.241c0.493-11.361,9.293-16.814,20.012-12.111c0,0,9.977,4.374,18.828,6.626
			c-4.137-1.362-7.344-4.336-10.975-6.613c-2.521-1.582-5.18-2.029-6.682-2.688c-2.932-1.287-5.824-1.938-8.596-1.938
			c-9.305,0-15.557,7.12-15.557,17.719v7.997C287.182,265.23,288.285,262.267,289.182,259.241z"/>
		<linearGradient id="SVGID_7_" gradientUnits="userSpaceOnUse" x1="322.521" y1="317.4746" x2="-29.1197" y2="313.5791">
			<stop  offset="0" style="stop-color:#8585bc"/>
			<stop  offset="1" style="stop-color:#343490"/>
		</linearGradient>
		<path style="&st6;" d="M288.876,367.99h0.259V266.216c-1.344,7.004-1.988,15.346-2.922,19.434v78.604
			C287.095,365.504,288.016,366.727,288.876,367.99z"/>
		<linearGradient id="SVGID_8_" gradientUnits="userSpaceOnUse" x1="244.6509" y1="274.3418" x2="179.7839" y2="420.9973">
			<stop  offset="0" style="stop-color:#8585bc"/>
			<stop  offset="1" style="stop-color:#343490"/>
		</linearGradient>
		<path style="&st7;" d="M284.68,365.07H181.351c-4.793-0.006-8.494-1.633-10.413-4.576c-1.922-2.945-1.918-6.99,0.011-11.387
			c0.335-0.762,8.179-18.758,8.179-28.332c0-15.375-10.095-28.432-24.002-32.904c6.403,2.721,11.656,7.721,14.757,13.923
			c3.971,5.289,6.324,11.859,6.324,18.98c0,9.072-7.932,27.158-7.932,27.158c-4.835,11.021,1.05,20.041,13.076,20.057H286.77
			C286.076,367.016,285.369,366.049,284.68,365.07z"/>
		<linearGradient id="SVGID_9_" gradientUnits="userSpaceOnUse" x1="292.0947" y1="79.6313" x2="2.9583" y2="362.197">
			<stop  offset="0" style="stop-color:#8585bc"/>
			<stop  offset="1" style="stop-color:#343490"/>
		</linearGradient>
		<path style="&st8;" d="M336.352,191.783c-9.074,0-27.158,7.932-27.158,7.932c-11.032,4.839-20.059-1.059-20.059-13.105V78.856
			h-21.876c-0.011,0-0.019-0.001-0.028-0.001h-85.866c-12.006-0.008-17.894-8.987-13.121-19.978
			c0.026-0.061,0.051-0.123,0.076-0.185c0.607-1.399,7.886-18.357,7.887-27.052V31.64c0,0,0,0,0-0.001
			c0-6.006-1.674-11.622-4.58-16.405c-0.264-0.435-0.539-0.863-0.823-1.284C165.118,5.534,155.49,0,144.567,0
			c-3.122,0-6.133,0.465-8.981,1.308c1.829-0.334,3.704-0.519,5.618-0.519c8.885,0,17.017,3.777,22.868,9.782
			c1.604,1.486,3.059,3.158,4.313,5.013c0.257,0.38,0.506,0.77,0.746,1.164c0.487,0.804,0.919,1.635,1.325,2.479
			c2.584,4.603,3.765,9.883,4.07,15.442c0.632,11.483-7.421,22.646-8.523,24.159c-2.447,6.029-2.874,11.27,0.064,15.751
			c3.039,4.636,8.472,7.192,15.299,7.197l104.85,0.001v104.832c0,5.164,1.479,9.58,4.273,12.77
			c2.797,3.191,6.803,4.949,11.283,4.949c2.771,0,5.664-0.652,8.598-1.938c4.875-2.138,19.051-7.687,25.984-7.687
			c14.43,0,26.373,10.711,28.387,24.594c0.586,2.266,0.934,4.621,0.934,7.05c0,11.62-7.178,21.802-17.266,26.331
			c11.492-4.74,19.582-16.049,19.582-29.256C367.989,205.947,353.827,191.783,336.352,191.783z"/>
	</g>
</g>
</svg>
