<?xml version="1.0" encoding="utf-8"?>
<!-- Generator: Adobe Illustrator 15.0.2, SVG Export Plug-In . SVG Version: 6.00 Build 0)  -->
<!DOCTYPE svg PUBLIC "-//W3C//DTD SVG 1.1//EN" "http://www.w3.org/Graphics/SVG/1.1/DTD/svg11.dtd">
<svg version="1.1" id="Layer_1" xmlns="http://www.w3.org/2000/svg" xmlns:xlink="http://www.w3.org/1999/xlink" x="0px" y="0px"
	 width="367.989px" height="367.99px" viewBox="0 0 367.989 367.99" enable-background="new 0 0 367.989 367.99"
	 xml:space="preserve">
<g>
	<g>
		
			<linearGradient id="SVGID_1_" gradientUnits="userSpaceOnUse" x1="436.603" y1="13.4292" x2="151.8628" y2="-260.3595" gradientTransform="matrix(1 0 0 -1 -147.6602 98.0303)">
			<stop  offset="0" style="stop-color:#8dc63f"/>
			<stop  offset="1" style="stop-color:#badd8c"/>
		</linearGradient>
		<path fill="url(#SVGID_1_)" d="M149.351,367.991h117.88h21.904v-21.904v-85.852c0-12.047,9.025-17.944,20.059-13.104
			c0,0,18.084,7.933,27.158,7.933c17.475,0,31.637-14.164,31.637-31.641c0-17.476-14.162-31.64-31.637-31.64
			c-9.074,0-27.158,7.932-27.158,7.932c-11.031,4.839-20.059-1.059-20.059-13.104V100.76v-0.001V78.856h-21.877
			c-0.01,0-0.018-0.001-0.027-0.001h-85.866c-12.006-0.008-17.894-8.987-13.121-19.978c0.026-0.061,0.051-0.123,0.076-0.185
			c0.607-1.399,7.886-18.357,7.887-27.052l0,0c0,0,0,0,0-0.001l0,0c0-6.006-1.674-11.622-4.58-16.405
			c-0.264-0.435-0.539-0.863-0.823-1.284C165.118,5.534,155.49,0,144.567,0c-10.922,0-20.551,5.534-26.236,13.95
			c-0.284,0.42-0.559,0.849-0.823,1.284c-2.906,4.783-4.581,10.399-4.581,16.405l0,0c0,0.001,0,0.001,0,0.001v0.001
			c0.001,8.694,7.28,25.652,7.887,27.052c0.024,0.062,0.05,0.124,0.076,0.185c4.773,10.991-1.115,19.97-13.121,19.978H21.904
			c-0.01,0-0.019,0.001-0.028,0.001H0v17.346c0.315,1.472,0.488,2.995,0.488,4.557v85.851c0,12.047,9.027,17.945,20.059,13.104
			c0,0,18.085-7.932,27.158-7.932c17.475,0,31.638,14.163,31.638,31.639c0,17.478-14.164,31.64-31.638,31.64
			c-9.073,0-27.158-7.932-27.158-7.932c-11.032-4.84-20.059,1.059-20.059,13.105v85.851c0,1.563-0.172,3.086-0.488,4.56v17.346
			h21.904h126.879"/>
	</g>
	<g>
		
			<linearGradient id="SVGID_2_" gradientUnits="userSpaceOnUse" x1="480.437" y1="47.543" x2="111.718" y2="-78.7705" gradientTransform="matrix(1 0 0 -1 -147.6602 98.0303)">
			<stop  offset="0" style="stop-color:#8dc63f"/>
			<stop  offset="1" style="stop-color:#badd8c"/>
		</linearGradient>
		<path fill="url(#SVGID_2_)" d="M0.488,186.608c0,12.048,9.027,17.945,20.059,13.105c0,0,18.085-7.932,27.158-7.932
			c9.342,0,17.736,4.051,23.527,10.49c6.011,4.736,10.165,11.766,10.995,19.679c-0.774-18.376-15.959-33.091-34.521-33.091
			c-9.575,0-27.57,7.845-28.332,8.178c-2.188,0.961-4.291,1.447-6.25,1.447c-5.992,0-9.714-4.551-9.714-11.877v-85.851
			c0-1.613-0.164-3.246-0.487-4.856V81.777l104.849-0.001c6.828-0.004,12.261-2.561,15.3-7.197c1.241-1.892,5.65-8.213-6.057-25.622
			c2.28,6.056,5.429,9.579,5.523,17.749c-0.242,7.123-5.794,12.143-14.767,12.148H21.904c-0.01,0-0.019,0.001-0.028,0.001H0v17.346
			c0.315,1.472,0.488,2.995,0.488,4.557V186.608z"/>
		
			<linearGradient id="SVGID_3_" gradientUnits="userSpaceOnUse" x1="148.1479" y1="-153.2061" x2="226.0024" y2="-153.2061" gradientTransform="matrix(1 0 0 -1 -147.6602 98.0303)">
			<stop  offset="0" style="stop-color:#8dc63f"/>
			<stop  offset="1" style="stop-color:#badd8c"/>
		</linearGradient>
		<path fill="url(#SVGID_3_)" d="M3.925,255.901c1.208-4.739,4.5-7.545,9.198-7.545c1.959,0,4.063,0.486,6.25,1.446
			c0.762,0.335,18.757,8.179,28.332,8.179c13.301,0,24.862-7.557,30.637-18.6c-4.32,7.273-11.721,12.551-20.307,13.945
			c-3.238,1.117-6.711,1.732-10.33,1.732c-9.073,0-27.158-7.932-27.158-7.932c-11.032-4.84-20.059,1.059-20.059,13.105v2.857
			C1.527,260.658,2.684,258.269,3.925,255.901z"/>
		
			<linearGradient id="SVGID_4_" gradientUnits="userSpaceOnUse" x1="225.7485" y1="-211.4722" x2="179.3851" y2="-322.8175" gradientTransform="matrix(1 0 0 -1 -147.6602 98.0303)">
			<stop  offset="0" style="stop-color:#8dc63f"/>
			<stop  offset="1" style="stop-color:#badd8c"/>
		</linearGradient>
		<path fill="url(#SVGID_4_)" d="M148.78,365.069H2.921v-14.127c0.324-1.61,0.487-3.241,0.487-4.856v-85.28
			c-1.078,2.293-2.05,4.629-2.92,7.012v78.269c0,1.563-0.172,3.086-0.488,4.56v17.346h148.784"/>
		
			<linearGradient id="SVGID_5_" gradientUnits="userSpaceOnUse" x1="465.3325" y1="-14.3848" x2="448.5393" y2="-243.6497" gradientTransform="matrix(1 0 0 -1 -147.6602 98.0303)">
			<stop  offset="0" style="stop-color:#8dc63f"/>
			<stop  offset="1" style="stop-color:#badd8c"/>
		</linearGradient>
		<path fill="url(#SVGID_5_)" d="M289.182,259.241c0.492-11.361,9.293-16.814,20.012-12.111c0,0,9.977,4.374,18.828,6.626
			c-4.137-1.362-7.344-4.336-10.975-6.612c-2.521-1.582-5.18-2.029-6.682-2.688c-2.934-1.287-5.824-1.938-8.598-1.938
			c-9.305,0-15.557,7.121-15.557,17.719v7.998C287.182,265.229,288.286,262.267,289.182,259.241z"/>
		
			<linearGradient id="SVGID_6_" gradientUnits="userSpaceOnUse" x1="470.1821" y1="-219.4438" x2="118.5414" y2="-215.5484" gradientTransform="matrix(1 0 0 -1 -147.6602 98.0303)">
			<stop  offset="0" style="stop-color:#8dc63f"/>
			<stop  offset="1" style="stop-color:#badd8c"/>
		</linearGradient>
		<path fill="url(#SVGID_6_)" d="M288.875,367.99h0.26V266.216c-1.344,7.004-1.988,15.346-2.922,19.434v78.604
			C287.095,365.504,288.016,366.728,288.875,367.99z"/>
		
			<linearGradient id="SVGID_7_" gradientUnits="userSpaceOnUse" x1="394.5708" y1="-203.272" x2="336.8837" y2="-333.6948" gradientTransform="matrix(1 0 0 -1 -147.6602 98.0303)">
			<stop  offset="0" style="stop-color:#8dc63f"/>
			<stop  offset="1" style="stop-color:#badd8c"/>
		</linearGradient>
		<path fill="url(#SVGID_7_)" d="M149.351,367.989H286.77c-0.693-0.973-1.4-1.94-2.09-2.92H149.351"/>
		
			<linearGradient id="SVGID_8_" gradientUnits="userSpaceOnUse" x1="439.7554" y1="18.3984" x2="150.619" y2="-264.1672" gradientTransform="matrix(1 0 0 -1 -147.6602 98.0303)">
			<stop  offset="0" style="stop-color:#8dc63f"/>
			<stop  offset="1" style="stop-color:#badd8c"/>
		</linearGradient>
		<path fill="url(#SVGID_8_)" d="M336.352,191.783c-9.074,0-27.158,7.932-27.158,7.932c-11.031,4.839-20.059-1.059-20.059-13.104
			V78.856h-21.877c-0.01,0-0.018-0.001-0.027-0.001h-85.866c-12.006-0.008-17.894-8.987-13.121-19.978
			c0.026-0.061,0.051-0.123,0.076-0.185c0.607-1.399,7.886-18.357,7.887-27.052l0,0c0,0,0,0,0-0.001
			c0-6.006-1.674-11.622-4.58-16.405c-0.264-0.435-0.539-0.863-0.823-1.284C165.118,5.534,155.49,0,144.567,0
			c-3.122,0-6.133,0.465-8.981,1.308c1.829-0.334,3.704-0.519,5.618-0.519c8.885,0,17.017,3.777,22.868,9.782
			c1.604,1.486,3.059,3.158,4.313,5.013c0.257,0.38,0.506,0.77,0.746,1.164c0.487,0.804,0.919,1.635,1.325,2.479
			c2.584,4.603,3.765,9.883,4.07,15.442c0.632,11.483-7.421,22.646-8.523,24.159c-2.447,6.029-2.874,11.27,0.064,15.751
			c3.039,4.636,8.472,7.192,15.299,7.197l104.849,0.001v104.832c0,5.164,1.479,9.58,4.273,12.771
			c2.797,3.19,6.803,4.949,11.283,4.949c2.771,0,5.664-0.652,8.598-1.938c4.875-2.138,19.051-7.687,25.984-7.687
			c14.43,0,26.373,10.711,28.387,24.594c0.586,2.267,0.934,4.621,0.934,7.05c0,11.62-7.178,21.803-17.266,26.332
			c11.492-4.74,19.582-16.05,19.582-29.257C367.989,205.947,353.827,191.783,336.352,191.783z"/>
	</g>
</g>
</svg>
